# xmcd
# Track frame offsets:
# 150
# 18325
# 30467
# 49405
# 64510
# 79872
# 97285
# 115560
# 132907
# 148525
# 163172
#
# Disc length: 2382 seconds
# Revision: 0
# Processed by: cddbd v1.4PL0 Copyright (c) Steve Scherf et al.
# Submitted via: VisiTrax 2.9.5.180 - For more info visit www.synapsa.com
#
DISCID=91094c0b
DTITLE=Dwight Whitley - Nothin' but a woman
DYEAR=2000
DGENRE=
TTITLE0=Nothin' but a woman
TTITLE1=Going to the house
TTITLE2=All aboard
TTITLE3=Have mercy
TTITLE4=I love you a thousand ways
TTITLE5=Make it a double
TTITLE6=Burnin' deck
TTITLE7=I sure know how to lie
TTITLE8=Flat natural born good-timin' man
TTITLE9=Turn this thing around
TTITLE10=This weary heart you stole away
EXTD=
EXTT0=
EXTT1=
EXTT2=
EXTT3=
EXTT4=
EXTT5=
EXTT6=
EXTT7=
EXTT8=
EXTT9=
EXTT10=
PLAYORDER=
